<svg width="31" height="30" viewBox="0 0 31 30" fill="none" xmlns="http://www.w3.org/2000/svg">
<path d="M15.5 0.916687C13.5849 0.916687 11.6886 1.2939 9.91922 2.02678C8.14989 2.75966 6.54223 3.83386 5.18805 5.18805C2.45314 7.92295 0.916687 11.6323 0.916687 15.5C0.916687 21.9459 5.1021 27.4146 10.8917 29.3542C11.6209 29.4709 11.8542 29.0188 11.8542 28.625V26.1604C7.8146 27.0354 6.95419 24.2063 6.95419 24.2063C6.28335 22.5146 5.33544 22.0625 5.33544 22.0625C4.00835 21.1584 5.43752 21.1875 5.43752 21.1875C6.89585 21.2896 7.66877 22.6896 7.66877 22.6896C8.93752 24.9063 11.0813 24.25 11.9125 23.9C12.0438 22.9521 12.4229 22.3104 12.8313 21.9459C9.59377 21.5813 6.19585 20.3271 6.19585 14.7709C6.19585 13.1521 6.75002 11.8542 7.69794 10.8188C7.5521 10.4542 7.04169 8.93752 7.84377 6.96877C7.84377 6.96877 9.06877 6.57502 11.8542 8.45627C13.0063 8.13544 14.2604 7.97502 15.5 7.97502C16.7396 7.97502 17.9938 8.13544 19.1459 8.45627C21.9313 6.57502 23.1563 6.96877 23.1563 6.96877C23.9584 8.93752 23.4479 10.4542 23.3021 10.8188C24.25 11.8542 24.8042 13.1521 24.8042 14.7709C24.8042 20.3417 21.3917 21.5667 18.1396 21.9313C18.6646 22.3834 19.1459 23.2729 19.1459 24.6292V28.625C19.1459 29.0188 19.3792 29.4854 20.1229 29.3542C25.9125 27.4 30.0834 21.9459 30.0834 15.5C30.0834 13.5849 29.7061 11.6886 28.9733 9.91922C28.2404 8.14989 27.1662 6.54223 25.812 5.18805C24.4578 3.83386 22.8502 2.75966 21.0808 2.02678C19.3115 1.2939 17.4151 0.916687 15.5 0.916687Z" fill="#BF5252"/>
</svg>
