<svg width="28" height="28" viewBox="0 0 28 28" fill="none" xmlns="http://www.w3.org/2000/svg">
<path fill-rule="evenodd" clip-rule="evenodd" d="M11.3248 18.3248L20.4167 9.23301L22.5085 11.3248C22.6717 11.488 22.8795 11.599 23.1058 11.644C23.3321 11.689 23.5666 11.6659 23.7798 11.5776C23.9929 11.4894 24.1751 11.3399 24.3033 11.148C24.4315 10.9562 24.5 10.7307 24.5 10.5V4.66668L24.4988 4.61068C24.4856 4.31087 24.3568 4.02782 24.1396 3.82079C23.9223 3.61376 23.6334 3.49881 23.3333 3.50001H17.5C17.2693 3.50006 17.0438 3.56851 16.852 3.69671C16.6602 3.82491 16.5107 4.0071 16.4224 4.22025C16.3341 4.4334 16.311 4.66793 16.356 4.89421C16.401 5.12049 16.5121 5.32835 16.6752 5.49151L18.767 7.58334L9.67517 16.6752C9.56374 16.7828 9.47486 16.9115 9.41371 17.0539C9.35257 17.1962 9.32039 17.3493 9.31904 17.5042C9.31769 17.6591 9.34721 17.8127 9.40587 17.9561C9.46454 18.0995 9.55116 18.2298 9.66071 18.3393C9.77025 18.4488 9.90051 18.5355 10.0439 18.5941C10.1873 18.6528 10.3409 18.6823 10.4958 18.681C10.6507 18.6796 10.8038 18.6474 10.9461 18.5863C11.0885 18.5252 11.2172 18.4363 11.3248 18.3248ZM4.66667 3.50001C4.35725 3.50001 4.0605 3.62293 3.84171 3.84172C3.62292 4.06051 3.5 4.35726 3.5 4.66668V21C3.5 21.9283 3.86875 22.8185 4.52513 23.4749C5.1815 24.1313 6.07174 24.5 7 24.5H21C21.9283 24.5 22.8185 24.1313 23.4749 23.4749C24.1313 22.8185 24.5 21.9283 24.5 21V15.1667C24.5 14.8573 24.3771 14.5605 24.1583 14.3417C23.9395 14.1229 23.6428 14 23.3333 14C23.0239 14 22.7272 14.1229 22.5084 14.3417C22.2896 14.5605 22.1667 14.8573 22.1667 15.1667V21C22.1667 21.3094 22.0438 21.6062 21.825 21.825C21.6062 22.0438 21.3094 22.1667 21 22.1667H7C6.69058 22.1667 6.39383 22.0438 6.17504 21.825C5.95625 21.6062 5.83333 21.3094 5.83333 21V5.83334H12.8333C13.1428 5.83334 13.4395 5.71043 13.6583 5.49163C13.8771 5.27284 14 4.9761 14 4.66668C14 4.35726 13.8771 4.06051 13.6583 3.84172C13.4395 3.62293 13.1428 3.50001 12.8333 3.50001H4.66667Z" fill="#BF5252"/>
</svg>
