<svg width="28" height="28" viewBox="0 0 28 28" fill="none" xmlns="http://www.w3.org/2000/svg">
<path d="M17.5 24.5C17.5 24.5 17.5 21.8517 17.5 21C17.5 20.265 17.675 18.7133 16.9167 18.0833C18.5383 17.9317 19.81 17.4067 21 16.3333C22.19 15.26 22.75 13.6383 22.75 11.0833C22.75 9.33333 22.4583 8.16667 21.5833 7C21.9217 6.09 21.98 4.66667 21.5833 3.5C19.7633 3.5 18.1183 4.74833 17.5 5.25C17.045 5.13333 15.9483 4.66667 14 4.66667C12.0517 4.66667 10.955 5.13333 10.5 5.25C9.88167 4.74833 8.23667 3.5 6.41667 3.5C6.02 4.66667 6.07833 6.09 6.41667 7C5.54167 8.16667 5.25 9.33333 5.25 11.0833C5.25 13.6383 5.81 15.26 7 16.3333C8.19 17.4067 9.46167 17.9317 11.0833 18.0833C10.325 18.7133 10.5 20.265 10.5 21C10.5 21.8517 10.5 24.5 10.5 24.5" stroke="#BF5252" stroke-width="2.91667" stroke-linecap="round" stroke-linejoin="round"/>
<path d="M10.5 22.1666C8.855 22.1666 7.18667 21.5133 6.195 20.7783C5.215 20.0433 4.92333 18.8416 3.5 18.0833" stroke="#BF5252" stroke-width="2.91667" stroke-linecap="round" stroke-linejoin="round"/>
</svg>
