<svg width="29" height="29" viewBox="0 0 29 29" fill="none" xmlns="http://www.w3.org/2000/svg">
<path d="M22.2335 0.28125H6.76646C5.04647 0.28125 3.39694 0.964511 2.18072 2.18072C0.964511 3.39694 0.28125 5.04647 0.28125 6.76646V22.2335C0.28125 23.9535 0.964511 25.6031 2.18072 26.8193C3.39694 28.0355 5.04647 28.7188 6.76646 28.7188H22.2335C23.9535 28.7188 25.6031 28.0355 26.8193 26.8193C28.0355 25.6031 28.7188 23.9535 28.7188 22.2335V6.76646C28.7188 5.04647 28.0355 3.39694 26.8193 2.18072C25.6031 0.964511 23.9535 0.28125 22.2335 0.28125ZM9.89604 23.2383C9.90061 23.3177 9.88891 23.3972 9.86165 23.4719C9.83439 23.5466 9.79214 23.6149 9.73752 23.6727C9.68289 23.7304 9.61702 23.7764 9.54397 23.8078C9.47092 23.8392 9.39222 23.8553 9.31271 23.8552H6.71688C6.56033 23.8514 6.41154 23.7863 6.30246 23.674C6.19338 23.5616 6.13273 23.411 6.13354 23.2544V12.4583C6.1314 12.3804 6.1449 12.3028 6.17326 12.2302C6.20161 12.1575 6.24424 12.0913 6.29862 12.0354C6.353 11.9796 6.41804 11.9352 6.48987 11.9048C6.56171 11.8745 6.6389 11.8589 6.71688 11.859H9.31271C9.39068 11.8589 9.46787 11.8745 9.53971 11.9048C9.61155 11.9352 9.67658 11.9796 9.73096 12.0354C9.78535 12.0913 9.82798 12.1575 9.85633 12.2302C9.88468 12.3028 9.89819 12.3804 9.89604 12.4583V23.2383ZM7.96667 9.58833C7.68562 9.58623 7.40775 9.52879 7.14891 9.41929C6.89006 9.30979 6.65532 9.15038 6.45808 8.95017C6.26085 8.74995 6.10498 8.51285 5.99937 8.25239C5.89377 7.99194 5.8405 7.71323 5.8426 7.43219C5.84471 7.15115 5.90215 6.87327 6.01165 6.61443C6.12115 6.35558 6.28055 6.12084 6.48077 5.9236C6.68099 5.72637 6.91809 5.5705 7.17855 5.46489C7.439 5.35929 7.71771 5.30602 7.99875 5.30813C8.55659 5.32627 9.08525 5.56169 9.47194 5.96417C9.85862 6.36664 10.0727 6.9043 10.0685 7.46242C10.0643 8.02053 9.84221 8.55492 9.44953 8.95155C9.05685 9.34818 8.52471 9.57565 7.96667 9.58542M23.7415 23.2208C23.7408 23.3682 23.6829 23.5095 23.5801 23.6151C23.4773 23.7206 23.3375 23.7821 23.1902 23.7867H20.45C20.3025 23.7821 20.1625 23.7204 20.0596 23.6145C19.9567 23.5087 19.8991 23.367 19.8988 23.2194V18.226C19.8988 17.4808 20.1262 14.9842 17.9212 14.9842C16.2019 14.9842 15.8621 16.7342 15.7965 17.5129V23.3331C15.7965 23.481 15.739 23.6231 15.6361 23.7292C15.5332 23.8354 15.393 23.8973 15.2452 23.9019H12.5867C12.4361 23.9015 12.2918 23.8414 12.1854 23.7348C12.0791 23.6282 12.0194 23.4837 12.0194 23.3331V12.4058C12.0239 12.258 12.0858 12.1178 12.192 12.0149C12.2982 11.912 12.4403 11.8545 12.5881 11.8546H15.2452C15.3931 11.8545 15.5351 11.912 15.6413 12.0149C15.7475 12.1178 15.8094 12.258 15.814 12.4058V13.3465C16.2019 12.7786 16.7376 12.3275 17.3631 12.0417C17.9886 11.7559 18.6803 11.6463 19.3635 11.7248C23.7896 11.7248 23.7735 15.8592 23.7735 18.21L23.7415 23.2208Z" fill="#BF5252"/>
</svg>
