<svg width="29" height="29" viewBox="0 0 29 29" fill="none" xmlns="http://www.w3.org/2000/svg">
<path fill-rule="evenodd" clip-rule="evenodd" d="M5.45835 0.291687C4.08807 0.291687 2.77391 0.836031 1.80497 1.80497C0.836031 2.77391 0.291687 4.08807 0.291687 5.45835V23.5417C0.291687 24.912 0.836031 26.2261 1.80497 27.1951C2.77391 28.164 4.08807 28.7084 5.45835 28.7084H23.5417C24.912 28.7084 26.2261 28.164 27.1951 27.1951C28.164 26.2261 28.7084 24.912 28.7084 23.5417V5.45835C28.7084 4.08807 28.164 2.77391 27.1951 1.80497C26.2261 0.836031 24.912 0.291687 23.5417 0.291687H5.45835ZM5.02694 4.81252C4.88554 4.86507 4.75837 4.94991 4.65555 5.06029C4.55273 5.17066 4.47711 5.30353 4.43471 5.44829C4.39231 5.59305 4.3843 5.74572 4.41132 5.89413C4.43835 6.04253 4.49965 6.18258 4.59035 6.3031L11.8418 15.926L4.20156 24.1216L4.14473 24.1875H6.78877L13.0275 17.498L17.8222 23.8633C17.9334 24.0107 18.0845 24.1231 18.2575 24.1875H23.9692C24.1104 24.1347 24.2373 24.0497 24.3399 23.9392C24.4424 23.8287 24.5177 23.6958 24.5599 23.551C24.602 23.4063 24.6098 23.2537 24.5826 23.1054C24.5554 22.9572 24.494 22.8173 24.4032 22.6969L17.1518 13.074L24.8553 4.81252H22.2074L15.9686 11.5034L11.1714 5.13802C11.0603 4.99021 10.9093 4.87726 10.7361 4.81252H5.02694ZM19.0803 22.312L7.30673 6.68802H9.91461L21.6869 22.3107L19.0803 22.312Z" fill="#BF5252"/>
</svg>
